<?xml version="1.0" encoding="utf-8"?>
<svg xmlns="http://www.w3.org/2000/svg" width="249.751" height="147.837" viewBox="0 0 249.751 147.837">
  <g id="Legal_Aid_Primary_Full_Color" data-name="Legal Aid_Primary_Full Color" transform="translate(0 -0.005)">
    <g id="Group_309" data-name="Group 309" transform="translate(55.948 0.005)">
      <g id="Group_306" data-name="Group 306" transform="translate(97.94 17.094)">
        <path id="Path_195" data-name="Path 195" d="M393.24,62.4v0Z" transform="translate(-371.458 -51.62)" fill="#e00022"/>
        <path id="Path_196" data-name="Path 196" d="M388.44,62.446v0Z" transform="translate(-368.802 -51.626)" fill="#e00022"/>
        <path id="Path_197" data-name="Path 197" d="M392.366,87.47l-.036.013h0Z" transform="translate(-370.954 -65.491)" fill="#e00022"/>
        <path id="Path_198" data-name="Path 198" d="M392.216,87.52h0l-.036.013Z" transform="translate(-370.871 -65.519)" fill="#e00022"/>
        <path id="Path_199" data-name="Path 199" d="M386.709,81.683l-8.063-26.107a.274.274,0,0,0,.076-.3l-.192-.514a.281.281,0,0,0-.344-.17c-1.26.415-3.685,1.206-5.754,1.782-.719.2-2.051.523-3.234.809-1.023.25-1.59.3-3.239.751-.058-.523-.138-1.157-.161-1.595-.036-.719.112-2.05.188-3.225s.223-1.706.264-4.043c-.04-2.336-.188-2.868-.264-4.043s-.228-2.506-.188-3.225.228-1.975.228-2.39a2.393,2.393,0,0,0-.3-1.139h-1.081a2.378,2.378,0,0,0-.3,1.139c0,.42.188,1.671.228,2.39s-.112,2.05-.188,3.225-.223,1.706-.264,4.043c.04,2.336.188,2.868.264,4.043s.228,2.506.188,3.225c-.031.608-.17,1.595-.214,2.135-1.617.652-2.091.96-3.064,1.389-1.112.491-2.368,1.045-3.06,1.322-1.992.8-4.4,1.648-5.651,2.086a.273.273,0,0,0-.17.344l.161.523a.279.279,0,0,0,.362.179c.183-.067.4-.147.63-.228l-7.719,27.366H344.48a12.068,12.068,0,0,0,21.175,0h-1.014l-8.7-28.175c.889-.295,1.832-.608,2.725-.9.706-.232,2.024-.612,3.194-.956,1.153-.34,1.729-.389,3.962-1.157h0a.064.064,0,0,0,.027-.009h0c2.243-.751,2.725-1.059,3.846-1.492s2.412-.938,3.114-1.184c1.215-.424,2.524-.885,3.663-1.273l-7.157,25.37h-1.255a11.163,11.163,0,0,0,19.584,0H386.7Zm-22.872,9.779H346.651l7.8-27.67.826-.281,8.564,27.952Zm6.232-9.779,7.224-25.642c.264-.089.514-.17.742-.246l7.929,25.888Z" transform="translate(-344.48 -38.27)" fill="#e00022"/>
      </g>
      <g id="Group_308" data-name="Group 308" transform="translate(0 0)">
        <g id="Group_307" data-name="Group 307" transform="translate(14.557)">
          <path id="Path_200" data-name="Path 200" d="M269.474,44.372a6.644,6.644,0,0,1,.934-.889,1.3,1.3,0,0,1,1.036-.192c.13.1,0,.514-.174.7a2.159,2.159,0,0,0-.67.809,4.1,4.1,0,0,0-.116.567c-.152-.491-.63-1.054-1.014-1Z" transform="translate(-219.595 -23.928)" fill="#00365b"/>
          <path id="Path_201" data-name="Path 201" d="M267.98,52.2a2.7,2.7,0,0,0,.742-.88,3.117,3.117,0,0,1,.688-.952,1.667,1.667,0,0,1,.59-.286.8.8,0,0,1,.666.237,2.072,2.072,0,0,1-.335.818,1.67,1.67,0,0,0-.8.156,8.854,8.854,0,0,0-.867.679.763.763,0,0,1-.679.219Z" transform="translate(-218.771 -27.708)" fill="#00365b"/>
          <path id="Path_202" data-name="Path 202" d="M272.315,55.579l-.786,1.22c-.192-.112-.192-.5-.237-.675a2.269,2.269,0,0,0-.246-.514.157.157,0,0,1,.094-.241,3.24,3.24,0,0,1,1.077-.022.156.156,0,0,1,.1.237Z" transform="translate(-220.452 -30.605)" fill="#00365b"/>
          <path id="Path_203" data-name="Path 203" d="M200.043,4.523a10.3,10.3,0,0,0-7.429-4.5c-2.5-.156-5.571.885-7.916,1.666,0,0-4.686-.313-7.862,1.144-2.426,1.112-6.875,3.748-7.876,8.85a9.048,9.048,0,0,0,5.3,9.868,24.725,24.725,0,0,0,1.094,4.74,10.19,10.19,0,0,0,1.706,2.855c-1.617,1.519-1.992,4.177-2.394,5.289s-1.568,3.592-2.68,4.351c1.215-.255,2.734-1.769,3.645-2.43s2.734-1.921,4.3-1.975a6.815,6.815,0,0,1-1.416,2.734c1.617-.255,2.984-1.872,4.253-2.278a11.7,11.7,0,0,1-1.367,1.975,7.956,7.956,0,0,0-1.318,3.645,8.915,8.915,0,0,1,2.278-1.769c.809-.5,2.734-1.112,3.583-2.52-.241,2.622-2.841,5.807-4.9,7.174-3.342,2.225-12.044,6.276-14.17,8s-9.716,7.693-9.006,17.306c12.45-4.454,27.527-13.156,35.22-24.087a14.6,14.6,0,0,1-2.426-8.372,16.274,16.274,0,0,1,.911-3.878c.885,1.38,3.775,3.306,5.026,3.413a4.1,4.1,0,0,1,2.966-4.767c1.952-.625,3.462,0,5.557-.384a9.432,9.432,0,0,0,3.65-.956c-2.055-.013-4.909-1.175-5.883-2.453s-1.782-4.633-2.515-5.316a4,4,0,0,0-3.426-.759c1.733-.487,7.46-2.551,10.2-4.391a.218.218,0,0,0,.058-.308c-.4-.581-.657-1.282-.817-1.184a58.508,58.508,0,0,1-13.415,5.548c-.17.036-.246-.112-.076-.17a68.251,68.251,0,0,0,12.959-6.223.218.218,0,0,0,.08-.268l-.214-.5a.217.217,0,0,0-.317-.1c-3.708,2.247-13.487,6.169-20.5,8.18-.214.049-.228-.152-.094-.188a98.827,98.827,0,0,0,20.134-8.747.2.2,0,0,0,.067-.277l-.25-.442a.2.2,0,0,0-.295-.071,55.826,55.826,0,0,1-11.15,5c-.071.027-.17-.063-.045-.125a58.611,58.611,0,0,0,9.864-4.985c.076-.054.1-.085.054-.17l-.085-.147c-.045-.089-.161-.228-.246-.174a16.063,16.063,0,0,1-3.243,1.564,8.938,8.938,0,0,0-.433-6.075,7.88,7.88,0,0,1,3.985,3.2c.326-2.1-.661-4.905-3.114-5.495" transform="translate(-157.825 -0.005)" fill="#00365b"/>
        </g>
        <path id="Path_204" data-name="Path 204" d="M177.377,81.964c-.563,3.288-3.61,7.058-8.282,9.395,9.555-.9,19.549-4.3,22.484-7.232,1.684-1.684,2.31-2.435,2.4-3.9a9.142,9.142,0,0,0-.768-2.792c-.241-.576-1.041-2.2-1.595-3.328a3.463,3.463,0,0,1-.147-2.779A8,8,0,0,1,195.622,67c2.167-.96,5.678-1.059,7.8-2.453s3.029-3.029,4.088-4.28,3.56-3.994,4.713-5.146a9.852,9.852,0,0,1,3.56-2.167,3.711,3.711,0,0,1,2.359-.143c.433.1,1.059,1.059,2.359.192s1.635-4.378,1.541-6.3l17.387-17.637a4.345,4.345,0,0,1,1.787-1.036c.661-.205,4.177-1.394,4.758-1.644s1.394-.71,1.47-1.47a1.269,1.269,0,0,0-.456-1.188c-.179-.2-.049-.657.125-.96a1.851,1.851,0,0,0,.255-1.242,1.048,1.048,0,0,0-.733-.733c-.2-.049-.38-.125-.331-.3a2.764,2.764,0,0,0,.331-1.036,1.818,1.818,0,0,0-.607-1.188c-.277-.228-.532-.1-.835-.2a.475.475,0,0,1-.38-.482,1.834,1.834,0,0,0-.3-1.139c-.331-.38-.885-.277-1.264-.255s-.683.076-.817-.1l-.281-.4a.977.977,0,0,0-1.465-.156c-.482.447-1.059.978-1.38,1.278a4.673,4.673,0,0,0-1.153,2.211,37.431,37.431,0,0,1-1.059,3.7,6.3,6.3,0,0,1-1.153,1.827c-.286.286-1.635,1.541-2.31,2.117-.625.536-9.144,6.763-13.049,9.529a8.018,8.018,0,0,1,.456,3.493,14.023,14.023,0,0,0-1.041-2.926,4.043,4.043,0,0,0-.974-1.465,1.317,1.317,0,0,0-.911-.264c-.384,0-.88.625-1.291,1.005-.491.456-2.274,1.153-2.658,1.631a7.887,7.887,0,0,1-1.769,1.595c-.581.335-2.359,1.541-2.792,1.778a7.109,7.109,0,0,1-1.385.554c-.255.063-.429.063-.657.125a1.484,1.484,0,0,0-.71.822,12.131,12.131,0,0,1-1.483,5.539,15.407,15.407,0,0,0,.228-3.985,2.107,2.107,0,0,0-.152-.719c-.116-.228-.339-.532-.7-.366-.451.206-1.778.625-2.26.867s-.818.1-1.3.433a8.291,8.291,0,0,0-1.1,1.139,2.082,2.082,0,0,1-1.367.456,1.35,1.35,0,0,0-.92.353,4.5,4.5,0,0,1-1.541.885c-.331,2.4-2.85,8.881-5.633,11.257,1.827-2.694,2.68-7.791,2.631-9.462.049-.433.1-.96-.143-1.2s-.675-.192-1.3-.049a18.257,18.257,0,0,1-3.275.822,41.579,41.579,0,0,1-11.856,14.9c1.541-1.733,7.7-10.73,8.515-13.518.1-.482.192-.916-.1-1.2s-1.059-.192-2.068-.049a12.748,12.748,0,0,1-2.39.049c-8.5,14.876-17.7,20.192-23.167,23.529S144.217,78.6,140.08,80.669c-3.207,1.6-11.231,5.374-14.84,8.823,7.219-2.649,11.552-4.333,18.771-5.213,6.665-.813,18.53-2.247,25.691-7.71-1.389,4.262-5.16,6.5-9.01,7.871-4.351,1.541-12.834,1.282-18.209,5.615,4.972-1.2,13.076-.8,17.646-.885s12.191-1.2,17.244-7.219Z" transform="translate(-125.24 -8.449)" fill="#00365b"/>
      </g>
    </g>
    <path id="Path_205" data-name="Path 205" d="M140.2,254.707c1.689-2.046,3.257-3.949,4.878-5.915,1.255.849,2.417,1.733,3.668,2.457,3.766,2.171,7.746,3.154,12.071,1.912a7.983,7.983,0,0,0,6.192-7.818c.045-1.054,0-2.117,0-3.489a17.274,17.274,0,0,1-24.838-4.825,18.283,18.283,0,0,1,2.055-21.769c5.776-6.259,15.528-6.875,22.729-2.305.045-.773.089-1.5.138-2.341h8.135c.031.357.054,23.346-.013,34.5-.031,5.593-2.109,10.234-7,13.321a19.289,19.289,0,0,1-10.127,2.721c-6.732.147-12.763-1.693-17.9-6.446Zm26.862-30.623c.063-2.823-.969-4.083-3.038-5.271-4.092-2.345-9.413-2.015-12.758.871a10.788,10.788,0,0,0-2.5,12.2c2.622,6.25,11.07,7.871,16.806,3.257a3.262,3.262,0,0,0,1.488-3.06Z" transform="translate(-77.189 -116.171)" fill="#00365b"/>
    <path id="Path_206" data-name="Path 206" d="M252.739,212.755c.072-.983.121-1.711.179-2.515h8.01v34.88h-8.032c-.045-.768-.085-1.492-.143-2.43a17.043,17.043,0,0,1-23.458-3.154,19.581,19.581,0,0,1-.116-23.525,16.743,16.743,0,0,1,11.123-6.451,16.1,16.1,0,0,1,12.432,3.194Zm.058,9.127a2.5,2.5,0,0,0-.634-1.577,11.043,11.043,0,0,0-11.593-2.752c-4.123,1.273-6.25,4.391-6.79,8.6-.616,4.789,1.447,9.14,5.271,11.177a11.611,11.611,0,0,0,12.486-1.581,3.179,3.179,0,0,0,1.322-2.837l-.058-11.034Z" transform="translate(-124.658 -115.84)" fill="#00365b"/>
    <path id="Path_207" data-name="Path 207" d="M90.4,229.788H62.9a8.98,8.98,0,0,0,5.7,8.358c4.418,1.68,10.413,1.456,15.22-4.074,1.854,1.412,3.721,2.828,5.682,4.32a16.832,16.832,0,0,1-7.576,5.982,21.6,21.6,0,0,1-18.49-.617c-6.763-3.431-10.176-11.28-8.644-19.343A17.68,17.68,0,0,1,71.972,209.5c6.455-.3,12.012,1.537,15.81,7.1,2.7,3.954,3.154,8.39,2.609,13.183Zm-8.162-6.093c-.487-4.543-3.744-7.2-8.881-7.3-5.267-.1-9.457,2.917-10.069,7.3Z" transform="translate(-30.114 -115.892)" fill="#00365b"/>
    <path id="Path_208" data-name="Path 208" d="M316.29,227.215V176.99h8.059v50.225Z" transform="translate(-174.995 -97.921)" fill="#00365b"/>
    <path id="Path_209" data-name="Path 209" d="M349.59,233.64c.925-2.386,1.778-4.606,2.645-6.822,4.762-12.209,10.248-26.4,14.947-38.628h9.488c3.672,9.5,7.97,20.2,11.673,29.694q2.922,7.485,5.816,14.979c.08.21.138.429.232.724H385.77c-1.2-3.14-2.412-6.259-3.56-9.4a1.49,1.49,0,0,0-1.648-1.17q-8.57.067-17.141,0a1.5,1.5,0,0,0-1.639,1.2c-.965,2.649-2.671,6.813-3.574,9.484l-8.617-.054ZM372,197.531c-2.43,6.33-4.726,12.316-7.067,18.41h14.121C376.711,209.816,374.432,203.866,372,197.531Z" transform="translate(-193.419 -104.118)" fill="#00365b"/>
    <path id="Path_210" data-name="Path 210" d="M508.76,183h7.693v47.692h-7.6c-.04-.7-.085-1.4-.134-2.216-1.17.63-2.238,1.327-3.4,1.8a16.31,16.31,0,0,1-21.608-9.8c-2.671-7.661-.223-16.167,5.932-20.625a15.982,15.982,0,0,1,18.325-.38c.188.125.384.246.791.5V183Zm-.013,25.7a2.555,2.555,0,0,0-.567-1.523,10.844,10.844,0,0,0-13.067-1.756c-3.645,2.31-4.838,5.839-4.467,9.9.366,4.016,2.336,7.13,6.3,8.461a10.271,10.271,0,0,0,10.8-2.287,3.6,3.6,0,0,0,.978-2.18l.018-10.614Z" transform="translate(-267.032 -101.246)" fill="#00365b"/>
    <g id="Group_310" data-name="Group 310" transform="translate(201.992 82.646)">
      <path id="Path_211" data-name="Path 211" d="M463.309,248.782H455.75V215.63h7.559Z" transform="translate(-454.146 -201.946)" fill="#00365b"/>
      <path id="Path_212" data-name="Path 212" d="M457.579,195.636a5.381,5.381,0,0,1-5.419-5.352,5.384,5.384,0,0,1,10.766.08,5.372,5.372,0,0,1-5.347,5.267Z" transform="translate(-452.16 -184.999)" fill="#00365b"/>
    </g>
    <g id="Group_311" data-name="Group 311" transform="translate(100.102 134.606)">
      <path id="Path_213" data-name="Path 213" d="M224.08,314.474a5.349,5.349,0,0,1,.527-2.4,3.857,3.857,0,0,1,1.488-1.644,4.181,4.181,0,0,1,2.2-.576,3.964,3.964,0,0,1,2.984,1.184,4.664,4.664,0,0,1,1.237,3.141l.009.478a5.407,5.407,0,0,1-.518,2.4,3.8,3.8,0,0,1-1.474,1.635,4.242,4.242,0,0,1-2.22.581,3.949,3.949,0,0,1-3.078-1.282,4.9,4.9,0,0,1-1.153-3.413Zm2.037.174a3.635,3.635,0,0,0,.581,2.194,2.025,2.025,0,0,0,3.221-.013,4.03,4.03,0,0,0,.576-2.359,3.586,3.586,0,0,0-.594-2.18,1.888,1.888,0,0,0-1.608-.8,1.859,1.859,0,0,0-1.586.791A3.949,3.949,0,0,0,226.117,314.648Z" transform="translate(-224.08 -306.035)" fill="#e00022"/>
      <path id="Path_214" data-name="Path 214" d="M246.725,314.372V306.8H245.34v-1.51h1.385v-.831a3.118,3.118,0,0,1,.84-2.332,3.211,3.211,0,0,1,2.35-.822,4.6,4.6,0,0,1,1.139.152L251,303.057a4.011,4.011,0,0,0-.782-.067,1.309,1.309,0,0,0-1.461,1.5v.8h1.845v1.51h-1.845v7.568Z" transform="translate(-235.843 -301.31)" fill="#e00022"/>
      <path id="Path_215" data-name="Path 215" d="M280.19,315.418h-2.122l-5.446-8.666v8.666H270.5V303.2h2.122l5.463,8.7v-8.7h2.1Z" transform="translate(-249.763 -302.356)" fill="#e00022"/>
      <path id="Path_216" data-name="Path 216" d="M296.51,314.474a5.35,5.35,0,0,1,.527-2.4,3.857,3.857,0,0,1,1.488-1.644,4.181,4.181,0,0,1,2.2-.576,3.964,3.964,0,0,1,2.984,1.184,4.664,4.664,0,0,1,1.237,3.141l.009.478a5.406,5.406,0,0,1-.518,2.4,3.8,3.8,0,0,1-1.474,1.635,4.242,4.242,0,0,1-2.22.581,3.949,3.949,0,0,1-3.078-1.282,4.9,4.9,0,0,1-1.153-3.413Zm2.037.174a3.635,3.635,0,0,0,.581,2.194,2.025,2.025,0,0,0,3.221-.013,4.03,4.03,0,0,0,.576-2.359,3.616,3.616,0,0,0-.59-2.18,1.888,1.888,0,0,0-1.608-.8,1.859,1.859,0,0,0-1.586.791,3.949,3.949,0,0,0-.59,2.372Z" transform="translate(-264.154 -306.035)" fill="#e00022"/>
      <path id="Path_217" data-name="Path 217" d="M324.008,311.883a5.046,5.046,0,0,0-.831-.067,1.875,1.875,0,0,0-1.89,1.072V319.1H319.25V310.02H321.2l.049,1.014a2.293,2.293,0,0,1,2.046-1.184,1.98,1.98,0,0,1,.724.116l-.009,1.912Z" transform="translate(-276.735 -306.035)" fill="#e00022"/>
      <path id="Path_218" data-name="Path 218" d="M335.064,305.279v2.207h1.6V309h-1.6v5.066a1.1,1.1,0,0,0,.206.751.965.965,0,0,0,.733.228,3.031,3.031,0,0,0,.715-.085v1.577a4.987,4.987,0,0,1-1.345.192q-2.352,0-2.35-2.6v-5.142H331.53v-1.51h1.492V305.27h2.037Z" transform="translate(-283.529 -303.501)" fill="#e00022"/>
      <path id="Path_219" data-name="Path 219" d="M348.487,306.508a3.19,3.19,0,0,1,2.524-1.157q2.9,0,2.944,3.315V314.6h-2.037v-5.857a1.791,1.791,0,0,0-.407-1.331,1.671,1.671,0,0,0-1.2-.389,1.965,1.965,0,0,0-1.827,1.09V314.6H346.45V301.71h2.037Z" transform="translate(-291.784 -301.531)" fill="#e00022"/>
      <path id="Path_220" data-name="Path 220" d="M376.858,312.4l1.881-9.2h2.1l-2.819,12.218h-2.033l-2.323-8.921-2.372,8.921h-2.037L366.44,303.2h2.1l1.894,9.18,2.332-9.18h1.778l2.305,9.2Z" transform="translate(-302.844 -302.356)" fill="#e00022"/>
      <path id="Path_221" data-name="Path 221" d="M404.707,319.272a4.213,4.213,0,0,1-3.14-1.22,4.425,4.425,0,0,1-1.206-3.252v-.25a5.471,5.471,0,0,1,.523-2.43,3.968,3.968,0,0,1,1.474-1.666,3.89,3.89,0,0,1,2.113-.594,3.547,3.547,0,0,1,2.863,1.184,5,5,0,0,1,1.01,3.346v.822h-5.932a2.736,2.736,0,0,0,.75,1.778,2.245,2.245,0,0,0,1.657.652,2.763,2.763,0,0,0,2.283-1.13l1.1,1.05a3.641,3.641,0,0,1-1.456,1.264,4.555,4.555,0,0,1-2.042.451Zm-.241-7.778a1.712,1.712,0,0,0-1.354.59,3.043,3.043,0,0,0-.657,1.635h3.886v-.152a2.474,2.474,0,0,0-.545-1.546,1.7,1.7,0,0,0-1.327-.523Z" transform="translate(-321.611 -306.04)" fill="#e00022"/>
      <path id="Path_222" data-name="Path 222" d="M426.359,316.631a.931.931,0,0,0-.447-.831,4.768,4.768,0,0,0-1.488-.5,7.581,7.581,0,0,1-1.738-.554,2.318,2.318,0,0,1-1.528-2.14,2.408,2.408,0,0,1,.992-1.961,3.911,3.911,0,0,1,2.515-.791,4.083,4.083,0,0,1,2.631.8,2.553,2.553,0,0,1,1.005,2.091h-2.037a1.258,1.258,0,0,0-.438-.978,1.678,1.678,0,0,0-1.157-.389,1.814,1.814,0,0,0-1.094.308.978.978,0,0,0-.424.831.818.818,0,0,0,.393.728,5.369,5.369,0,0,0,1.595.523,7.385,7.385,0,0,1,1.885.63,2.682,2.682,0,0,1,1.014.876,2.259,2.259,0,0,1,.331,1.242,2.366,2.366,0,0,1-1.014,1.983,4.337,4.337,0,0,1-2.663.759,4.689,4.689,0,0,1-1.988-.4,3.261,3.261,0,0,1-1.358-1.108,2.6,2.6,0,0,1-.487-1.519h1.979a1.432,1.432,0,0,0,.545,1.112,2.129,2.129,0,0,0,1.336.389,2.008,2.008,0,0,0,1.224-.308.953.953,0,0,0,.42-.8Z" transform="translate(-332.953 -306.035)" fill="#e00022"/>
      <path id="Path_223" data-name="Path 223" d="M442.974,305.279v2.207h1.6V309h-1.6v5.066a1.1,1.1,0,0,0,.206.751.965.965,0,0,0,.733.228,3.031,3.031,0,0,0,.715-.085v1.577a4.986,4.986,0,0,1-1.345.192q-2.352,0-2.35-2.6v-5.142H439.44v-1.51h1.492V305.27h2.037Z" transform="translate(-343.233 -303.501)" fill="#e00022"/>
      <path id="Path_224" data-name="Path 224" d="M471.079,304.921h-3.81v10.507h-2.1V304.921H461.39V303.21h9.694v1.711Z" transform="translate(-355.377 -302.361)" fill="#e00022"/>
      <path id="Path_225" data-name="Path 225" d="M485.947,319.272a4.213,4.213,0,0,1-3.141-1.22A4.425,4.425,0,0,1,481.6,314.8v-.25a5.471,5.471,0,0,1,.523-2.43,3.968,3.968,0,0,1,1.474-1.666,3.89,3.89,0,0,1,2.113-.594,3.546,3.546,0,0,1,2.863,1.184,5,5,0,0,1,1.01,3.346v.822H483.65a2.737,2.737,0,0,0,.751,1.778,2.246,2.246,0,0,0,1.657.652,2.763,2.763,0,0,0,2.283-1.13l1.1,1.05a3.641,3.641,0,0,1-1.456,1.264,4.555,4.555,0,0,1-2.041.451Zm-.241-7.778a1.712,1.712,0,0,0-1.354.59,3.043,3.043,0,0,0-.657,1.635h3.887v-.152a2.475,2.475,0,0,0-.545-1.546,1.7,1.7,0,0,0-1.327-.523Z" transform="translate(-366.559 -306.04)" fill="#e00022"/>
      <path id="Path_226" data-name="Path 226" d="M505.307,313.219l1.729-2.989H509.3l-2.779,4.472,2.868,4.606h-2.247l-1.814-3.1-1.8,3.1H501.26l2.868-4.606-2.77-4.472h2.247l1.7,2.989Z" transform="translate(-377.436 -306.245)" fill="#e00022"/>
      <path id="Path_227" data-name="Path 227" d="M527.434,319.092a3.142,3.142,0,0,1-.237-.849,3.429,3.429,0,0,1-4.615.232,2.5,2.5,0,0,1-.862-1.93,2.577,2.577,0,0,1,1.077-2.229,5.219,5.219,0,0,1,3.082-.777h1.251v-.594a1.425,1.425,0,0,0-1.595-1.55,1.785,1.785,0,0,0-1.139.348,1.08,1.08,0,0,0-.442.885h-2.037a2.258,2.258,0,0,1,.5-1.4,3.28,3.28,0,0,1,1.349-1.019,4.735,4.735,0,0,1,1.9-.371,3.816,3.816,0,0,1,2.542.8,2.872,2.872,0,0,1,.974,2.251v4.1a4.671,4.671,0,0,0,.344,1.957v.143h-2.082Zm-2.243-1.47a2.328,2.328,0,0,0,1.139-.295,1.948,1.948,0,0,0,.8-.791v-1.711h-1.1a3,3,0,0,0-1.7.393,1.281,1.281,0,0,0-.572,1.117,1.188,1.188,0,0,0,.389.934,1.508,1.508,0,0,0,1.045.348Z" transform="translate(-388.756 -306.029)" fill="#e00022"/>
      <path id="Path_228" data-name="Path 228" d="M547.759,316.631a.931.931,0,0,0-.447-.831,4.77,4.77,0,0,0-1.488-.5,7.585,7.585,0,0,1-1.738-.554,2.318,2.318,0,0,1-1.528-2.14,2.409,2.409,0,0,1,.992-1.961,3.911,3.911,0,0,1,2.515-.791,4.083,4.083,0,0,1,2.631.8,2.553,2.553,0,0,1,1.005,2.091h-2.037a1.258,1.258,0,0,0-.438-.978,1.679,1.679,0,0,0-1.157-.389,1.815,1.815,0,0,0-1.095.308.979.979,0,0,0-.424.831.818.818,0,0,0,.393.728,5.369,5.369,0,0,0,1.595.523,7.386,7.386,0,0,1,1.885.63,2.68,2.68,0,0,1,1.014.876,2.259,2.259,0,0,1,.331,1.242,2.366,2.366,0,0,1-1.014,1.983,4.337,4.337,0,0,1-2.663.759,4.689,4.689,0,0,1-1.988-.4,3.262,3.262,0,0,1-1.358-1.108,2.6,2.6,0,0,1-.487-1.519h1.979a1.431,1.431,0,0,0,.545,1.112,2.128,2.128,0,0,0,1.336.389,2.008,2.008,0,0,0,1.224-.308.953.953,0,0,0,.42-.8Z" transform="translate(-400.121 -306.035)" fill="#e00022"/>
    </g>
    <path id="Path_229" data-name="Path 229" d="M23.775,222.174H8.434V182.54H0v47.71H30.833a18.624,18.624,0,0,1-7.058-8.077Z" transform="translate(0 -100.992)" fill="#00365b"/>
  </g>
</svg>
