<svg width="319" height="79" viewBox="0 0 319 79" fill="none" xmlns="http://www.w3.org/2000/svg"><style>.st0{fill:#00047D;}</style>
<path class="st0" d="M109.093 68.4802C108.48 66.6321 107.887 64.7841 107.274 62.936C106.272 59.91 105.271 56.8638 104.269 53.8378C103.124 50.365 101.98 46.9126 100.835 43.4398C99.4247 39.1954 98.0347 34.9306 96.6243 30.6861C96.2768 29.6504 96.0928 29.5285 95.0095 29.5285C94.9277 29.5285 94.8459 29.5285 94.7642 29.5285C85.1978 29.5285 75.6315 29.5285 66.0856 29.5285C65.1454 29.5285 64.7774 29.2645 64.4504 28.3709C64.4299 28.31 64.4095 28.2491 64.389 28.1882C63.4283 25.2028 62.4676 22.2378 61.5069 19.2524C60.7915 17.0388 60.0556 14.8049 59.3197 12.5913C58.0524 8.77326 56.7646 4.95527 55.4768 1.15758C55.3542 0.771722 55.252 0.385861 55.1498 0H54.1686C54.1277 0.182776 54.1277 0.385861 54.0664 0.568637C53.1057 3.41183 52.145 6.25501 51.2047 9.0982C49.8556 13.1599 48.5269 17.2216 47.2187 21.3036C46.442 23.6594 45.7061 26.0152 44.9294 28.3913C44.8885 28.5334 44.8272 28.6553 44.7658 28.7974C44.5614 29.2848 44.173 29.5082 43.662 29.5285C43.5394 29.5285 43.4372 29.5285 43.3145 29.5285C35.1177 29.5285 26.9414 29.5285 18.7446 29.5285C17.4364 29.5285 16.1282 29.4879 14.82 29.4676C14.5134 29.4676 14.2067 29.5082 13.9001 29.5488C13.4504 29.6301 13.0621 29.8738 12.8781 30.3003C12.6532 30.808 12.4693 31.3157 12.2853 31.8437C11.4268 34.4432 10.5887 37.0427 9.7302 39.6625C8.40154 43.6835 7.09333 47.7046 5.76467 51.7257C4.9266 54.244 4.08852 56.7622 3.27089 59.3008C2.35105 62.083 1.43121 64.8653 0.511373 67.6679C0.429609 67.8913 0.327405 68.1147 0.225201 68.338C0.184319 68.4193 0.0821146 68.4599 0.020792 68.5005V69.9627C0.163878 70.0237 0.327405 70.044 0.45005 70.1252C2.37149 71.4046 4.27249 72.7044 6.19393 74.0041C8.36066 75.4663 10.507 76.9082 12.6737 78.3704C13.0212 78.6141 13.3891 78.8172 13.757 79.0406H14.2476C14.9835 78.5329 15.6989 78.0049 16.4348 77.4972C19.9302 75.1211 23.4256 72.745 26.9005 70.3689C27.0027 70.308 27.0845 70.2267 27.1662 70.1658C27.6159 69.8409 27.7386 69.3941 27.5546 68.8864C27.1663 67.7288 26.7983 66.5712 26.4304 65.4136C25.02 61.1488 23.6095 56.8841 22.1991 52.6193C21.5246 50.5478 20.8296 48.4967 20.155 46.4252C18.8673 42.5057 17.559 38.5658 16.2713 34.6463C16.0873 34.0979 15.9238 33.5699 15.7603 33.0216C15.7194 32.8794 15.6989 32.717 15.6376 32.453C15.8829 32.5951 16.026 32.6763 16.1691 32.7779C17.7635 33.9152 19.3578 35.0524 20.9318 36.1897C24.652 38.8704 28.3518 41.5512 32.0721 44.2319C33.8504 45.5113 35.6083 46.7907 37.3867 48.0702C38.1225 48.5982 38.2043 48.8825 37.9386 49.7355C37.3049 51.6851 36.6508 53.655 35.9967 55.6046C34.6476 59.7272 33.2985 63.8702 31.9494 67.9928C31.0296 70.7954 30.1302 73.6182 29.2103 76.4208C29.0059 77.0707 28.822 77.7206 29.0877 78.4314C29.66 78.3501 30.2119 78.2486 30.723 77.883C34.2797 75.3039 37.8364 72.7653 41.3931 70.1861C44.7045 67.7897 48.0159 65.3933 51.3273 62.9969C52.145 62.408 52.9626 61.7987 53.7802 61.2098C54.5366 60.6817 54.8432 60.6817 55.579 61.2301C58.543 63.3625 61.4864 65.5152 64.4504 67.6679C68.5794 70.6532 72.7289 73.6386 76.858 76.6239C77.553 77.1113 78.2275 77.6393 78.9021 78.1267C79.3109 78.4314 79.8015 78.3704 80.2716 78.4517C80.4556 77.9846 80.4964 77.5378 80.3534 77.0504C79.7197 75.1414 79.1269 73.2324 78.4932 71.3031C77.0011 66.6931 75.4884 62.083 73.9758 57.473C73.1377 54.8735 72.2792 52.2943 71.4207 49.7152C71.1141 48.781 71.1754 48.6388 71.9931 48.0499C75.4271 45.5722 78.8612 43.0946 82.2952 40.617C85.8928 38.0175 89.5109 35.3977 93.1085 32.7982C93.272 32.6763 93.4559 32.5951 93.6399 32.4936C93.6604 32.5139 93.6808 32.5342 93.7217 32.5545C93.6195 32.8997 93.5377 33.2247 93.4151 33.5699C92.6588 35.8851 91.882 38.2003 91.1257 40.4951C89.6744 44.9224 88.2026 49.3293 86.7513 53.7566C85.8315 56.5388 84.9117 59.3414 84.0123 62.1236C83.3173 64.2357 82.6427 66.3478 81.9477 68.4599C81.682 69.2722 81.866 69.8612 82.6019 70.3486C85.1774 72.0951 87.7529 73.8416 90.3285 75.5882C91.9024 76.6645 93.4764 77.7409 95.0503 78.8172C95.1321 78.8782 95.1934 78.9391 95.2547 79H95.7453C95.868 78.8985 96.0111 78.7969 96.1337 78.7157C99.2203 76.6442 102.307 74.5727 105.393 72.481C106.456 71.7702 107.54 71.0391 108.582 70.308C109.318 69.8003 109.4 69.5362 109.155 68.663C109.134 68.6021 109.114 68.5411 109.093 68.4802ZM12.6532 68.1756H2.65766C2.6781 67.7491 12.3466 38.3018 12.5715 37.9362C12.5919 37.9362 12.6124 37.9362 12.6124 37.9362C12.6328 37.9362 12.6328 37.9566 12.6328 37.9769C12.6532 47.928 12.6532 57.8589 12.6532 67.81C12.6941 67.9116 12.6737 68.0131 12.6532 68.1756ZM15.3923 75.3242V70.5517H22.2809C22.3013 70.5923 22.3013 70.6329 22.3218 70.6532C20.0324 72.1967 17.743 73.7401 15.3923 75.3242ZM25.0404 68.1756H15.0039C14.9835 68.1553 14.9631 68.135 14.9631 68.135C14.9426 68.1147 14.9426 68.1146 14.9426 68.0943C14.9222 67.9522 14.9222 67.81 14.9222 67.6679C14.9222 57.7573 14.9222 47.8671 14.9222 37.9566C14.9222 37.9362 14.9426 37.8956 14.9631 37.8753C14.9631 37.855 14.9835 37.855 15.0448 37.8347C15.0857 37.8753 15.147 37.9159 15.1675 37.9972C15.4536 38.5861 25.02 67.8506 25.0404 68.1756ZM46.7282 31.0923C48.1999 26.4823 49.6512 21.8722 51.1025 17.2825C51.9815 14.5206 52.8604 11.7586 53.7598 8.99666C53.862 8.69203 53.9438 8.36709 54.046 8.06247C54.1073 7.9 54.1891 7.75784 54.2708 7.59537C54.3117 7.61568 54.3526 7.61568 54.3935 7.63599V42.7087C54.0869 42.5869 53.9233 42.3432 53.7598 42.0995C52.7378 40.6982 51.7157 39.2766 50.7141 37.8753C49.4672 36.1288 48.2203 34.3823 46.953 32.6357C46.6259 32.1483 46.5442 31.6812 46.7282 31.0923ZM27.6159 37.8956C25.2653 36.21 22.8941 34.5244 20.5434 32.8388C20.3799 32.7373 20.2164 32.6154 20.0324 32.4936C20.2572 32.2499 20.4208 32.392 20.5639 32.453C21.6881 32.8185 22.8328 33.1841 23.957 33.5496C28.1883 34.9306 32.4195 36.2913 36.6712 37.6519C39.2468 38.4846 41.8223 39.3172 44.3979 40.1499C47.4436 41.1247 50.4893 42.0995 53.5145 43.0946C53.678 43.1555 53.8211 43.2165 54.0869 43.318C53.8825 43.4398 53.7802 43.5211 53.6576 43.5617C51.1229 44.3943 48.6087 45.2067 46.074 46.019C44.7454 46.4455 43.3963 46.872 42.0676 47.2985C41.4748 47.4812 40.9229 47.4203 40.4119 47.0548C36.1602 43.9679 31.8676 40.9419 27.6159 37.8956ZM54.4752 44.7802C54.4752 47.6437 54.4752 50.4869 54.4752 53.3504C54.4752 54.4674 54.4548 55.5843 54.4548 56.7013C54.4548 57.1278 54.3117 57.473 54.0255 57.737C53.7189 58.001 53.3919 58.265 53.0648 58.4884C49.365 61.2098 45.6448 63.9108 41.945 66.6118C39.533 68.3584 37.1005 70.1049 34.6885 71.8311C34.3614 72.0545 34.0139 72.2576 33.6664 72.4607C33.646 72.4404 33.6051 72.3997 33.5847 72.3794C40.4732 62.9563 47.3414 53.5332 54.2913 44.0491C54.3935 44.2116 54.4752 44.2928 54.4957 44.374C54.4957 44.5162 54.4752 44.6584 54.4752 44.7802ZM72.9333 62.408C73.9554 65.4745 74.9774 68.5411 75.979 71.5874C76.0608 71.8311 76.1017 72.0748 76.163 72.3591C75.8768 72.3185 75.795 72.1357 75.7133 72.0139C74.6708 70.5923 73.6079 69.1504 72.5654 67.7288C70.3782 64.7434 68.1706 61.7581 65.9834 58.7727C63.6532 55.5843 61.3025 52.4162 58.9722 49.2278C57.7662 47.5828 56.5398 45.9175 55.3338 44.2725C55.2316 44.1506 55.1498 44.0085 55.0476 43.8663C55.2724 43.6632 55.4564 43.8054 55.5995 43.846C56.3354 44.0694 57.0712 44.3131 57.7867 44.5365C60.444 45.3692 63.1013 46.2018 65.7586 47.0548C66.29 47.2172 66.8011 47.4203 67.3325 47.6031C67.8436 47.7859 68.1706 48.1514 68.3546 48.6591C69.2949 51.482 70.2351 54.2846 71.1754 57.1075C71.7478 58.8743 72.3405 60.6411 72.9333 62.408ZM55.1702 43.1555C55.1498 43.1352 55.1089 43.0946 55.0885 43.0743C55.2111 42.8509 55.3133 42.6275 55.4564 42.4244C57.4392 39.7031 59.4219 36.9817 61.4047 34.2604C61.7522 33.773 62.1201 33.2856 62.4676 32.8185C62.856 32.2905 63.3466 32.0265 64.0416 32.0265C72.1566 32.0265 80.292 32.0062 88.4071 32.0062C88.6115 32.0062 88.8159 32.0265 89.0203 32.0265C89.0203 32.0874 89.0407 32.1483 89.0407 32.2093C77.7574 35.8648 66.474 39.5 55.1702 43.1555ZM84.2984 68.0537C84.3393 67.9116 84.3598 67.7694 84.4006 67.6476C85.2796 64.9465 86.179 62.2658 87.058 59.5648C88.4888 55.2188 89.9197 50.8727 91.3505 46.547C92.2499 43.8257 93.1493 41.1044 94.0283 38.3627C94.0896 38.2003 94.1509 38.0378 94.2123 37.855C94.294 37.9362 94.3553 37.9566 94.3553 37.9972C94.3553 48.0093 94.3553 58.0213 94.3553 68.0131C94.0283 68.1146 85.1161 68.1553 84.2984 68.0537ZM103.819 70.9781C103.145 71.4452 102.47 71.892 101.796 72.3591C100.426 73.2933 99.0363 74.2072 97.6668 75.1211C97.5441 75.2023 97.401 75.2835 97.2171 75.3851V70.7141H104.044C103.922 70.8563 103.881 70.9375 103.819 70.9781ZM96.7265 68.1756C96.706 68.1553 96.6856 68.135 96.6856 68.135C96.6652 68.1147 96.6652 68.1146 96.6652 68.0943C96.6447 58.1838 96.6447 48.2936 96.6447 38.383C96.6447 38.2612 96.6447 38.119 96.6652 37.9972C96.6652 37.9769 96.706 37.9566 96.7878 37.8347C100.14 47.9889 103.472 58.062 106.804 68.1756H96.7265ZM318.776 62.936C318.203 60.8442 317.222 58.9961 315.607 57.4933C313.645 55.6859 311.315 54.7923 308.678 54.7111C305.734 54.6298 302.791 54.6907 299.847 54.6907C299.725 54.6907 299.602 54.7314 299.459 54.7517C299.479 54.9141 299.479 55.0157 299.52 55.1172C299.888 56.5794 299.99 58.0823 299.99 59.6054C299.97 64.4997 299.99 69.3738 299.99 74.2681V74.8774C301.278 74.918 302.484 74.9586 303.69 74.9789C305.264 74.9789 306.858 74.9383 308.432 74.918C309.475 74.8977 310.517 74.7758 311.519 74.5118C313.195 74.065 314.667 73.2527 315.873 72.0139C316.854 71.0391 317.59 69.8815 318.121 68.6224C318.448 67.81 318.796 66.9368 318.898 66.0635C319.041 65.0278 319.062 63.9717 318.776 62.936ZM310.947 70.4298C310.109 71.364 309.025 71.8514 307.778 72.0342C307.042 72.1357 306.327 72.156 305.571 71.9936V57.7776C306.164 57.5949 306.756 57.6152 307.329 57.6558C309.046 57.7573 310.415 58.5087 311.437 59.8897C312.357 61.1488 312.97 62.5704 313.113 64.1342C313.318 66.5306 312.541 68.6427 310.947 70.4298ZM179.389 67.1195C179.716 67.9928 179.757 68.927 179.716 69.8612C179.675 70.7548 179.655 71.628 179.614 72.6028C179.492 72.6028 179.328 72.6231 179.185 72.6028C178.02 72.3388 176.977 71.8311 176.078 71.0188C174.995 70.044 174.34 68.8051 173.932 67.4242C173.502 66.0026 173.359 64.5607 173.645 63.0985C174.054 61.0473 175.219 59.4429 176.875 58.2041C178.326 57.1278 179.962 56.8638 181.699 57.4324C182.701 57.7573 183.6 58.265 184.459 58.8743C184.622 58.9961 184.786 59.0977 185.031 59.2805C185.031 58.0416 185.031 56.9247 185.031 55.7874C185.031 55.5031 184.827 55.3 184.581 55.1782C184.438 55.0969 184.275 55.0563 184.132 55.0157C181.924 54.3658 179.655 54.1018 177.366 54.4064C176.201 54.5486 175.097 54.8532 174.013 55.3C172.623 55.8889 171.417 56.7419 170.395 57.8386C168.801 59.5242 167.881 61.5347 167.656 63.8296C167.534 65.1699 167.677 66.49 168.045 67.7694C168.576 69.6581 169.557 71.2828 171.049 72.5825C172.971 74.2681 175.281 75.1414 177.795 75.3851C180.003 75.6085 182.169 75.3242 184.275 74.6743C184.908 74.4712 185.072 74.2681 185.133 73.5979C185.215 72.6841 185.215 71.7499 185.154 70.836C185.133 70.572 185.154 70.308 185.113 70.0643C184.99 69.0082 185.092 67.9725 185.522 66.9774C185.644 66.6931 185.787 66.429 185.93 66.1244H178.878C179.083 66.4494 179.267 66.7743 179.389 67.1195ZM160.073 71.2422C159.01 72.0748 157.783 72.3591 156.455 72.3185C155.657 72.2982 154.86 72.2373 154.063 72.2373C153.634 72.2373 153.184 72.2779 152.755 72.2982C152.632 71.7093 152.673 66.226 152.796 65.8198C153.736 65.8198 154.697 65.7792 155.657 65.8401C156.087 65.8604 156.496 66.0432 156.925 66.1853C157.068 66.226 157.211 66.3275 157.415 66.429C157.415 65.1293 157.436 63.9108 157.415 62.6314C157.272 62.672 157.211 62.6923 157.15 62.7126C156.577 62.9969 156.005 63.1797 155.371 63.1594C154.84 63.1594 154.308 63.1594 153.756 63.1594C153.389 63.1594 153.021 63.1188 152.673 63.0985C152.632 63.0375 152.632 63.0172 152.612 63.0172C152.612 61.3519 152.591 59.6663 152.591 58.001C152.591 57.5949 152.898 57.3918 153.307 57.4324C153.552 57.4527 153.797 57.4527 154.043 57.4324C154.84 57.4121 155.637 57.3512 156.434 57.3512C157.436 57.3512 158.315 57.6964 159.051 58.3869C159.132 58.4478 159.214 58.5087 159.316 58.5697V54.7923C158.581 54.6907 146.52 54.7314 146.193 54.8329C146.234 54.8938 146.255 54.9548 146.296 54.9954C146.725 55.4422 146.991 55.9905 147.031 56.5997C147.093 57.2699 147.093 57.9604 147.093 58.6306C147.093 63.8905 147.093 69.1504 147.093 74.4103C147.093 74.5524 147.113 74.6946 147.134 74.8368H160.134C160.236 74.3494 160.236 71.5468 160.134 71.2015C160.134 71.2218 160.093 71.2218 160.073 71.2422ZM256.472 74.6134C256.451 74.6743 256.431 74.7352 256.431 74.7961C256.431 74.8164 256.431 74.8368 256.451 74.8368C256.451 74.8571 256.472 74.8571 256.492 74.8774H259.763C259.824 74.7352 259.865 74.6134 259.906 74.4915C260.151 73.7807 260.396 73.0699 260.621 72.3794C260.846 71.7093 261.071 71.5468 261.766 71.5468C262.4 71.5468 263.033 71.5671 263.667 71.5671C264.444 71.5671 265.241 71.5468 266.018 71.5468C266.549 71.5468 266.917 71.7905 267.122 72.2576C267.224 72.481 267.305 72.7044 267.387 72.9278C267.898 74.1057 268.777 74.7961 270.085 74.8368C271.394 74.8774 272.702 74.8571 274.01 74.8571C274.03 74.8571 274.051 74.8165 274.092 74.7555C271.169 67.7085 268.246 60.6614 265.282 53.4925C262.338 60.6411 259.415 67.6272 256.472 74.6134ZM262.113 68.8864C262.727 67.4242 263.299 66.0229 263.892 64.6216C263.933 64.6216 263.974 64.6216 263.994 64.6216C264.587 66.0229 265.159 67.4445 265.752 68.8864H262.113ZM210.562 71.3031C208.231 65.6979 205.922 60.0928 203.591 54.4877C203.53 54.3252 203.469 54.1627 203.366 54.0003C203.264 53.8175 203.101 53.8175 202.998 54.0003C202.937 54.1018 202.896 54.244 202.835 54.3455C201.22 58.2041 199.605 62.0627 197.99 65.9213C196.825 68.7036 195.66 71.4859 194.495 74.2681C194.434 74.4306 194.352 74.6134 194.27 74.8571C195.292 74.8571 196.212 74.8571 197.152 74.8571C197.255 74.8571 197.357 74.8571 197.439 74.8571C197.623 74.8571 197.684 74.7352 197.725 74.5931C197.97 73.8619 198.236 73.1308 198.481 72.3794C198.726 71.6889 198.91 71.5468 199.667 71.5468C200.3 71.5468 200.934 71.5671 201.568 71.5671C202.324 71.5671 203.06 71.5468 203.816 71.5468C204.491 71.5468 204.797 71.7702 205.043 72.3794C205.104 72.5419 205.165 72.7044 205.227 72.8871C205.717 74.126 206.617 74.8165 207.986 74.8571C208.988 74.8977 209.969 74.8774 210.97 74.8977C211.277 74.8977 211.584 74.8571 211.952 74.8368C211.911 74.6743 211.89 74.5727 211.849 74.4915C211.461 73.4355 211.011 72.3794 210.562 71.3031ZM200.096 68.8864C200.096 68.5208 201.363 65.3527 201.833 64.5404C202.426 65.9823 203.019 67.4039 203.632 68.8864H200.096ZM140.306 70.9172C140.184 70.9781 140.122 70.9985 140.061 71.0391C139.039 71.8311 137.853 72.1154 136.566 72.0951C135.83 72.0748 135.094 72.0545 134.358 72.0342C133.724 72.0139 133.091 72.0342 132.437 72.0342C132.416 71.953 132.396 71.8311 132.396 71.7296C132.375 70.7141 132.375 69.6784 132.375 68.663C132.375 67.2414 132.396 65.8401 132.396 64.4185C132.396 62.2049 132.375 59.9709 132.355 57.7573C132.355 56.681 132.559 55.6656 133.316 54.8329C133.336 54.8126 133.316 54.772 133.295 54.7314H126.386C126.366 54.8532 126.345 54.9548 126.345 55.036C126.304 55.8686 126.264 56.7216 126.243 57.5542C126.202 59.0164 126.182 60.4787 126.141 61.9206C126.12 63.2 126.08 64.4794 126.039 65.7589C125.998 67.2008 125.977 68.6427 125.936 70.0846C125.916 71.1609 125.916 72.217 125.896 73.2933C125.896 73.4355 125.855 73.5776 125.855 73.7198C125.834 74.0853 125.773 74.4509 125.896 74.8165H140.266C140.327 73.537 140.347 72.2576 140.306 70.9172ZM230.982 72.0951C229.735 72.1154 228.509 72.0545 227.262 72.0342C227.2 72.0342 227.139 71.9936 227.037 71.9733C227.037 71.7905 227.037 71.6077 227.037 71.4452C227.037 70.1861 227.037 68.9067 227.037 67.6476C227.037 65.1902 227.057 62.7532 227.057 60.2959C227.057 59.646 227.078 58.9961 227.017 58.3463C226.894 57.0871 227.057 55.9296 227.834 54.8938C227.855 54.8735 227.834 54.8329 227.834 54.7923H220.598C220.598 54.8532 220.598 54.8938 220.619 54.9141C221.395 55.6249 221.579 56.5388 221.579 57.5339C221.579 62.3877 221.579 67.2414 221.579 72.0951C221.579 73.0699 221.416 74.0041 220.7 74.7555C220.68 74.7758 220.7 74.8165 220.7 74.8368C221.211 74.9383 234.58 74.918 234.948 74.8165V71.0594C234.641 71.2015 234.396 71.3031 234.171 71.4249C233.19 72.0342 232.086 72.0748 230.982 72.0951ZM289.177 70.4095C289.177 66.2666 289.198 62.144 289.238 58.001C289.238 57.4324 289.341 56.8841 289.422 56.3154C289.504 55.8077 289.606 55.3 289.688 54.7923C288.871 54.6907 283.065 54.7314 282.697 54.8329C283.413 55.4625 283.679 56.2748 283.679 57.1887C283.679 57.8386 283.679 58.4884 283.679 59.1383C283.679 63.2 283.679 67.2414 283.679 71.3031C283.679 71.5265 283.699 71.7499 283.699 71.9733C283.719 72.9887 283.597 73.9635 282.779 74.6743C282.759 74.6946 282.738 74.7555 282.697 74.8165H289.729C289.688 74.5931 289.668 74.4306 289.606 74.2681C289.198 73.0293 289.177 71.7093 289.177 70.4095ZM302.832 42.0792C303.261 42.1807 306.961 42.1807 307.329 42.0386C307.267 41.8152 307.165 41.5918 307.124 41.3481C306.899 40.3936 306.777 39.4391 306.879 38.4643C306.961 37.6722 306.961 36.8802 306.981 36.0882C306.981 35.9663 307.022 35.8648 307.063 35.6617C307.226 35.8648 307.329 35.9866 307.431 36.1288C308.33 37.4285 309.25 38.7486 310.149 40.0483C311.519 42.0386 313.379 42.6478 315.75 41.937C315.628 41.7542 315.546 41.5918 315.444 41.4496C314.36 39.764 313.256 38.0581 312.153 36.3725C311.846 35.9054 311.969 35.9257 312.214 35.6211C312.623 35.0931 313.073 34.6057 313.461 34.0573C314.033 33.3059 314.197 32.4326 313.992 31.5188C313.665 30.0769 312.357 29.0005 310.763 28.8177C309.005 28.5943 307.226 28.5131 305.448 28.5131C305.182 28.5131 304.937 28.4725 304.671 28.4725C304.017 28.4725 303.384 28.4725 302.77 28.4725C303.465 33.0216 303.465 37.5504 302.832 42.0792ZM306.899 30.483C306.899 30.4424 306.92 30.4018 306.961 30.2799C307.472 30.3612 307.962 30.4018 308.432 30.5033C309.332 30.6861 309.904 31.2344 310.109 32.128C310.313 33.0622 309.965 33.8136 309.209 34.3823C308.739 34.7478 308.208 34.9103 307.615 34.8697C307.186 34.829 306.899 34.5853 306.899 34.1589C306.879 32.9404 306.879 31.7219 306.899 30.483ZM160.093 30.1987C158.642 28.8787 156.904 28.2694 154.942 28.2897C152.673 28.31 150.752 29.1427 149.321 30.8689C147.726 32.7779 147.256 34.9915 147.951 37.3879C148.851 40.4139 151.692 42.4447 155.003 42.465C155.821 42.4447 156.639 42.3432 157.415 42.0792C159.459 41.3887 160.952 40.0889 161.81 38.119C162.28 37.0427 162.444 35.9257 162.342 34.7478C162.178 32.9404 161.442 31.4172 160.093 30.1987ZM157.252 39.5609C156.72 40.1499 156.087 40.4748 155.31 40.5357C154.574 40.4951 153.961 40.2311 153.45 39.7437C152.632 38.972 152.142 38.0175 151.815 36.9614C151.631 36.3319 151.508 35.6617 151.385 35.0118C151.365 34.9103 151.344 34.7884 151.385 34.6869C151.692 33.773 151.978 32.8388 152.346 31.9452C152.694 31.1126 153.307 30.5033 154.247 30.2799C154.922 30.1175 155.514 30.3003 156.066 30.6252C157.068 31.2141 157.62 32.1686 158.029 33.2247C158.356 34.037 158.499 34.89 158.499 35.7429C158.499 37.1239 158.233 38.4643 157.252 39.5609ZM186.114 28.7162C186.114 28.9396 186.114 29.1021 186.114 29.2848C186.114 31.072 186.114 32.8591 186.114 34.6463C186.114 34.8087 186.176 34.9915 186.012 35.1337C185.522 34.6057 185.031 34.1183 184.54 33.6105C183.948 32.981 183.375 32.3514 182.762 31.7218C181.863 30.7877 180.963 29.8535 180.043 28.9193C179.819 28.6959 179.532 28.574 179.205 28.574C179.062 28.574 178.919 28.5537 178.756 28.5537C178.02 28.5537 177.304 28.4928 176.507 28.6147C176.936 30.8689 176.752 33.1028 176.752 35.3368C176.773 37.5707 176.896 39.8046 176.528 42.0386H178.94C178.572 39.0735 178.797 36.1694 178.98 33.245C179.021 33.2247 179.042 33.2247 179.083 33.2044C180.105 34.2807 181.127 35.3368 182.128 36.4131C183.13 37.4692 184.132 38.5455 185.154 39.6015C186.155 40.6779 187.157 41.7542 188.22 42.7697C188.261 42.5869 188.281 42.4244 188.261 42.2823C188.24 40.881 188.199 39.4594 188.199 38.0581C188.199 36.0069 188.24 33.9761 188.261 31.9249C188.261 31.2954 188.322 30.6658 188.342 30.0362C188.363 29.6098 188.342 29.163 188.342 28.7162H186.114ZM209.274 40.3733C208.804 40.353 208.334 40.353 207.863 40.3326C207.312 40.3326 207.128 40.1702 207.128 39.6015C207.128 38.5455 207.128 37.4895 207.128 36.4334C207.128 36.3116 207.148 36.1897 207.168 36.0272C208.211 36.0679 209.233 36.1085 210.255 36.1491V34.1386C209.233 34.1792 208.252 34.2401 207.25 34.2807V30.4221C207.352 30.4018 207.434 30.3815 207.516 30.3815C208.702 30.2799 209.867 30.3612 210.991 30.7267C211.195 30.7877 211.42 30.8283 211.645 30.8689V28.6959C211.032 28.5943 203.53 28.6147 203.162 28.7162C203.182 28.838 203.203 28.9599 203.223 29.1021C203.407 29.9753 203.489 30.8689 203.489 31.7625C203.469 34.7478 203.489 37.7332 203.489 40.7185C203.489 41.1653 203.55 41.6121 203.571 42.0386H212.197V39.5812C211.277 40.3123 210.296 40.4139 209.274 40.3733ZM283.413 39.8656C284.006 39.9062 284.374 40.2514 284.639 40.7794C285.048 41.6324 285.743 42.0792 286.704 42.0792C287.399 42.0792 288.094 42.0792 288.789 42.0792C288.871 42.0792 288.952 42.0589 289.095 42.0386C287.133 37.3067 285.191 32.6154 283.249 27.9242C283.208 27.9242 283.188 27.9242 283.147 27.9445C281.164 32.656 279.202 37.3676 277.199 42.1401H279.488C279.59 41.7136 279.693 41.3481 279.795 40.9622C280.04 40.1702 280.326 39.9468 281.164 39.9265C281.696 39.9062 282.207 39.9265 282.738 39.9265C282.963 39.9062 283.188 39.8452 283.413 39.8656ZM281.083 38.0581C281.471 37.1036 281.839 36.21 282.248 35.1946C282.697 36.1897 283.065 37.1036 283.433 38.0581H281.083ZM242.041 35.5398C241.162 34.7478 240.242 33.9964 239.342 33.2247C239.056 32.981 238.77 32.7576 238.504 32.4936C238.157 32.1483 237.993 31.7015 238.055 31.2141C238.075 31.072 238.116 30.9095 238.198 30.808C238.566 30.4221 238.995 30.1378 239.567 30.2596C239.935 30.3409 240.303 30.4018 240.671 30.483C241.243 30.6252 241.836 30.7877 242.449 30.9704C242.449 30.4221 242.47 29.955 242.449 29.4879C242.408 29.0005 242.122 28.6959 241.632 28.574C241.53 28.5537 241.448 28.5334 241.346 28.5131C239.853 28.1882 238.361 28.2085 236.91 28.7568C236.01 29.1021 235.275 29.6504 234.825 30.5033C234.15 31.8234 234.334 33.0825 235.193 34.2604C235.54 34.7478 235.99 35.1743 236.419 35.5805C237.135 36.2506 237.85 36.9411 238.75 37.4285C239.383 37.7738 239.731 38.3627 239.935 39.0329C240.058 39.4391 239.935 39.8046 239.588 40.0686C239.056 40.4545 238.484 40.6779 237.809 40.6779C236.992 40.6779 236.338 40.292 235.765 39.764C235.622 39.6422 235.499 39.5 235.295 39.3172C235.275 39.5406 235.275 39.6625 235.275 39.7843C235.275 40.2514 235.254 40.7185 235.275 41.2059C235.295 41.7745 235.459 42.1604 236.174 42.2823C236.481 42.3432 236.787 42.4041 237.094 42.4447C238.586 42.6072 240.017 42.4447 241.366 41.7339C242.94 40.9013 243.696 39.1751 243.247 37.4895C243.022 36.6974 242.613 36.0476 242.041 35.5398ZM259.15 30.483C259.64 30.4221 259.885 30.6455 259.926 31.1126C259.947 31.2344 259.926 31.336 259.926 31.4578C259.906 32.9404 259.865 34.4432 259.865 35.9257C259.865 36.7177 259.926 37.5098 259.947 38.3018C259.947 39.0329 259.926 39.764 259.865 40.4748C259.804 41.0028 259.64 41.5308 259.497 42.0995H263.953C263.933 41.9167 263.892 41.7949 263.892 41.673C263.81 41.1044 263.647 40.5154 263.647 39.9468C263.626 37.0224 263.626 34.0979 263.647 31.1735C263.647 30.9095 263.687 30.6455 263.708 30.3409C264.893 30.5236 265.997 30.7064 267.142 30.8689V28.6553H256.39V30.8486C256.615 30.8283 256.799 30.808 257.003 30.7877C257.698 30.7064 258.434 30.5846 259.15 30.483ZM135.421 39.4797C134.522 40.1499 133.479 40.2717 132.396 40.2311C131.701 40.2108 131.006 40.1702 130.25 40.1499C130.25 40.028 130.229 39.8656 130.229 39.6828C130.229 37.0021 130.229 34.3213 130.229 31.6406C130.229 31.2141 130.29 30.808 130.311 30.3815C130.352 29.8129 130.413 29.2442 130.474 28.6553H126.284V42.0386H135.462C135.564 41.5308 135.544 39.8249 135.421 39.4797Z" fill="#00047D"/>
</svg>